<svg width="30" height="30" viewBox="0 0 30 30" fill="none" xmlns="http://www.w3.org/2000/svg">
<path d="M15.0216 0C6.72514 0 0 6.70896 0 14.9855C0 21.3335 3.96028 26.7533 9.54921 28.9359C9.4167 27.749 9.29923 25.933 9.59808 24.6392C9.8725 23.4673 11.3602 17.1924 11.3602 17.1924C11.3602 17.1924 10.91 16.2886 10.91 14.9658C10.91 12.8854 12.1242 11.3282 13.627 11.3282C14.9098 11.3282 15.531 12.2854 15.531 13.4376C15.531 14.722 14.7134 16.6458 14.2876 18.4281C13.9305 19.9178 15.0367 21.1328 16.5102 21.1328C19.1783 21.1328 21.2336 18.3249 21.2336 14.272C21.2336 10.6972 18.6492 8.18744 14.9587 8.18744C10.6854 8.18744 8.179 11.391 8.179 14.6864C8.179 15.9755 8.67333 17.3621 9.29547 18.1093C9.41765 18.2603 9.43268 18.3925 9.39791 18.5443C9.28513 19.0131 9.03045 20.0434 8.98158 20.2488C8.91298 20.5272 8.76637 20.5853 8.47785 20.4541C6.60767 19.5897 5.42823 16.8549 5.42823 14.648C5.42823 9.92656 8.87444 5.58017 15.3552 5.58017C20.5636 5.58017 24.6159 9.29091 24.6159 14.2326C24.6159 19.404 21.3511 23.5639 16.8091 23.5639C15.2866 23.5639 13.8572 22.7773 13.3535 21.8397L12.4137 25.3995C12.0763 26.7036 11.1553 28.3387 10.5341 29.3306C11.9438 29.76 13.4268 30 14.9831 30C23.2655 30 30 23.2957 30 15.0145C30 6.73802 23.2645 0.0337511 14.9831 0.0337511L15.0216 0Z" fill="#9C7E5A"/>
</svg>
